<svg width="41" height="37" viewBox="0 0 41 37" fill="none" xmlns="http://www.w3.org/2000/svg">
<path d="M30.75 4.11133H38.9502C40.0823 4.11143 41 5.03182 41 6.16699V34.9443C41 36.0796 40.0823 36.9999 38.9502 37H2.0498C0.91772 36.9999 0 36.0796 0 34.9443V6.16699C0 5.03182 0.91772 4.11143 2.0498 4.11133H10.25L14.3496 0H26.6504L30.75 4.11133ZM21 11C16.0294 11 12 15.0294 12 20C12 21.5322 12.3833 22.9754 13.0586 24.2383L12 29L16.7617 27.9414C18.0246 28.6168 19.4678 29 21 29C25.9705 29 30 24.9705 30 20C30 15.0294 25.9705 11 21 11Z" fill="white"/>
</svg>
